<?xml version="1.0" encoding="utf-8"?>
<!-- Generator: Adobe Illustrator 25.2.1, SVG Export Plug-In . SVG Version: 6.00 Build 0)  -->
<svg version="1.1" id="Camada_1" xmlns="http://www.w3.org/2000/svg" xmlns:xlink="http://www.w3.org/1999/xlink" x="0px" y="0px"
	 viewBox="0 0 123.7 164.6" style="enable-background:new 0 0 123.7 164.6;" xml:space="preserve">
<style type="text/css">
	.st0{fill:#ED1C24;}
	.st1{fill:#21236A;}
</style>
<path class="st0" d="M81.2,135.6c-23.6,15.6-55,9.8-71.4-13.1C-5.6,101-1.5,73.6,13.1,57.6c2.5,2.2,5.1,4.4,7.6,6.7
	c-8.4,10.1-11.9,21.5-9.9,34.5c1.6,10.4,6.7,19,14.8,25.8c15.9,13.2,39.1,12.8,54.5-1c8.6-7.7,13.4-17.3,14.1-28.8
	c0.7-11.5-2.9-21.6-10.3-30.4c2.5-2.2,5.1-4.5,7.7-6.7c7.9,9.2,12.3,19.7,12.9,31.7c0.7,12-2.6,23-9.5,32.9c0.2,0.2,0.4,0.4,0.6,0.5
	c7.9,6.7,15.7,13.4,23.6,20c2.4,2,3.9,4.6,4.4,7.7c0.9,6.1-2.9,12.1-8.9,13.6c-5,1.3-9.2-0.1-12.6-3.9c-6.8-7.9-13.5-15.9-20.3-23.8
	C81.6,136.1,81.4,135.9,81.2,135.6z"/>
<path class="st1" d="M52.2,49.6c0.2-0.2,0.4-0.4,0.6-0.6c2.4-2.7,4.9-5.4,7.3-8.1c0.3-0.4,0.7-0.5,1.2-0.4c8.3,1.6,16,5,22.8,10
	c0.3,0.2,0.6,0.5,0.8,0.6c-6.7,6.7-13.4,13.4-20.1,20.1l0.1,0.1c-0.1,0-0.2-0.1-0.2-0.1c-3.2-2.1-6.8-3-10.7-3
	c-4.7,0-9.1,1.1-13.3,2.9c-0.2,0.1-0.4,0.2-0.7,0.3C33.1,64.7,26.4,58,19.5,51.3c0.2-0.2,0.3-0.3,0.4-0.4c5.9-4.4,12.4-7.8,19.5-9.6
	c1.1-0.3,2.3-0.5,3.4-0.8c0.5-0.1,0.8,0,1.1,0.4c2.5,2.7,5,5.3,7.4,8C51.7,49.1,51.9,49.3,52.2,49.6z"/>
<path class="st1" d="M34.9,17.3C34.9,7.7,42.7,0,52.3,0c9.5,0,17.2,7.8,17.2,17.3c0,9.6-7.8,17.3-17.4,17.3
	C42.6,34.6,34.9,26.8,34.9,17.3z"/>
</svg>
